<svg width="2280" height="586" viewBox="0 0 2280 586" fill="none" xmlns="http://www.w3.org/2000/svg">
<path fill-rule="evenodd" clip-rule="evenodd" d="M570.511 205.96C621.015 344.01 487.465 477.56 311.271 484.265C168.746 488.779 48.6591 402.348 26.2084 286.762C26.2084 285.633 25.093 285.633 25.093 285.633C23.9646 285.633 23.9646 285.633 23.9646 286.762C31.8113 427.043 162.002 546.001 321.361 539.257C384.213 537.026 473.989 521.294 543.572 438.261C544.688 437.146 545.816 438.261 545.816 439.377C496.44 523.551 406.663 581.914 302.283 585.287C141.795 590.89 6.0015 465.187 0.398566 303.596C-5.20437 134.12 131.704 -0.531738 289.949 0.583662C452.667 1.69906 477.362 98.2201 432.473 170.034C348.3 308.084 91.3036 329.406 55.3904 205.947C53.1466 200.331 50.9028 187.997 50.9028 180.137C50.9028 179.022 50.9028 179.022 49.7874 179.022C48.672 179.022 48.672 179.022 48.672 180.137C28.4651 293.493 166.502 363.076 318.015 314.815C436.974 277.773 521.148 191.356 496.453 89.232C496.453 86.9882 497.569 85.8599 498.697 88.1166C570.523 190.254 503.184 337.266 320.259 375.41C186.709 403.476 59.8909 343.997 38.5686 244.104C37.4402 238.488 36.3248 234.001 36.3248 229.513C36.3248 229.513 35.2094 228.398 34.081 228.398C34.081 228.398 32.9656 228.398 32.9656 229.513C25.1189 360.819 182.222 460.699 344.953 423.657C474.015 395.591 569.408 312.558 568.28 207.062C568.267 204.831 570.511 204.832 570.511 205.96V205.96ZM192.312 248.604C332.593 238.514 412.266 124.043 377.481 64.5635C348.3 17.4314 259.651 3.95581 170.99 53.3447C119.37 83.642 90.1882 129.659 104.779 156.584C119.37 184.651 175.477 185.766 228.225 158.828L193.441 95.9762C215.878 79.1415 301.18 46.5874 323.618 85.8728C339.324 113.939 304.54 173.419 224.866 201.472C159.771 223.923 93.5604 209.332 80.0848 167.803C73.3535 149.853 77.841 130.774 87.9445 112.811C89.0599 112.811 87.9445 111.683 87.9445 111.683C86.8291 110.567 86.8291 110.567 85.7007 111.683C26.2084 191.369 91.3036 256.464 192.312 248.604V248.604ZM515.519 550.476H507.672V546.001H530.11V550.476H522.263V575.183H515.519V550.476ZM540.213 546.001H549.188L555.92 567.323L562.651 546.001H571.639V575.183H566.023V550.476L559.292 575.183H553.676L545.816 550.476V575.183H540.213V546.001V546.001Z" fill="#BF0127"/>
<path fill-rule="evenodd" clip-rule="evenodd" d="M715.279 234.014H769.142C790.465 234.014 807.299 244.117 807.299 264.311C807.299 278.902 799.453 286.749 785.977 291.236C801.684 294.608 809.543 303.596 809.543 317.046C809.543 345.113 785.977 350.716 764.655 350.716H715.279V234.014V234.014ZM746.705 329.419H755.68C766.899 329.419 779.246 327.162 779.246 315.944C779.246 302.468 766.899 301.353 755.68 301.353H746.705V329.419ZM746.705 280.017H755.68C765.77 280.017 775.874 277.774 775.874 267.67C775.874 257.58 765.77 256.451 755.68 256.451H746.705V280.017ZM855.56 234.014H910.552C930.759 234.014 947.58 244.117 947.58 264.311C947.58 278.902 940.849 290.121 926.258 293.493C935.233 295.737 936.362 304.712 941.965 319.303L953.183 350.716H921.758L915.026 329.406C908.282 310.302 903.795 304.712 892.576 304.712H885.844V350.716H855.547V234.014H855.56V234.014ZM885.87 283.389H894.845C904.936 283.389 917.283 282.274 917.283 268.798C917.283 258.695 906.064 256.451 894.845 256.451H885.87V283.389ZM993.597 234.014H1025.02V350.716H993.597V234.014ZM1076.66 234.014H1119.3C1159.7 234.014 1187.77 247.476 1187.77 292.378C1187.77 336.125 1158.59 350.716 1119.3 350.716H1076.66V234.014ZM1106.95 328.278H1119.3C1142.87 328.278 1155.21 315.944 1155.21 292.378C1155.21 269.927 1141.74 257.58 1119.3 257.58H1106.95V328.278V328.278ZM1329.16 347.343C1308.94 352.972 1294.35 352.972 1284.28 352.972C1252.84 352.972 1216.95 337.266 1216.95 293.493C1216.95 249.72 1247.25 232.898 1289.88 232.898C1297.73 232.898 1314.57 232.898 1325.8 237.386L1323.55 263.196C1313.47 257.58 1302.21 255.349 1294.37 255.349C1269.7 255.349 1248.36 266.568 1248.36 293.506C1248.36 315.944 1265.21 329.432 1287.65 329.432C1292.14 329.432 1295.49 329.432 1298.87 328.291V304.738H1280.9V283.415H1329.16V347.343V347.343ZM1378.54 234.014H1460.46V256.464H1409.94V280.017H1458.23V302.455H1409.94V329.419H1462.71V350.716H1378.54V234.014V234.014ZM1499.74 234.014H1532.3L1546.86 323.79L1562.59 234.014H1601.85L1618.7 323.79L1634.41 234.014H1663.59L1637.78 350.716H1598.49L1581.67 262.067L1565.97 350.716H1525.55L1499.74 234.014V234.014ZM1726.44 234.014H1764.58L1809.47 350.716H1775.8L1766.84 326.047H1723.07L1714.11 350.716H1682.67L1726.44 234.014ZM1745.51 258.695L1729.8 303.596H1758.98L1745.51 258.695ZM1855.5 257.58H1826.32V234.014H1914.98V257.58H1885.8V350.716H1855.5V257.58V257.58ZM1955.38 234.014H2037.3V256.464H1986.8V280.017H2035.06V302.455H1986.8V329.419H2039.53V350.716H1955.38V234.014ZM2085.56 234.014H2140.55C2161.86 234.014 2178.7 244.117 2178.7 264.311C2178.7 278.902 2170.85 290.121 2156.26 293.493C2166.34 295.737 2166.34 304.712 2173.08 319.303L2184.3 350.716H2151.77L2145.03 329.406C2138.28 310.302 2134.92 304.712 2123.69 304.712H2116.95V350.716H2085.53V234.014H2085.56ZM2116.97 283.389H2124.82C2134.92 283.389 2147.26 282.274 2147.26 268.798C2147.26 258.695 2137.18 256.451 2124.82 256.451H2116.97V283.389ZM2223.6 238.501H2215.74V234.014H2238.19V238.501H2230.33V263.196H2223.6V238.501ZM2248.29 234.014H2257.25L2264 256.464L2270.74 234.014H2279.71V263.196H2275.22V239.617H2274.1L2267.37 263.196H2261.74L2253.9 239.617V263.196H2248.29V234.014V234.014Z" fill="black"/>
</svg>
